HIERARCHY
ROOT pelvis
{
  OFFSET 0 100 0
  CHANNELS 6 Xposition Yposition Zposition Zrotation Xrotation Yrotation
  JOINT pelvis_right_femur
  {
    OFFSET -10.78128 -3.44521 -0.5502486
    CHANNELS 3 Zrotation Xrotation Yrotation
    JOINT right_femur_tibia
    {
      OFFSET -0.8047443 -44.0398 -0.1307829
      CHANNELS 3 Zrotation Xrotation Yrotation
      JOINT right_tibia_foot
      {
        OFFSET 3.006224 -47.83518 -5
        CHANNELS 3 Zrotation Xrotation Yrotation
        End Site
        {
          OFFSET 0 -5 15
        }
      }
    }
  }
  JOINT pelvis_left_femur
  {
    OFFSET 10.78128 -3.44521 -0.5502486
    CHANNELS 3 Zrotation Xrotation Yrotation
    JOINT left_femur_tibia
    {
      OFFSET 0.8047443 -44.0398 -0.1307829
      CHANNELS 3 Zrotation Xrotation Yrotation
      JOINT left_tibia_foot
      {
        OFFSET -4.370144 -48.10324 -4.275266
        CHANNELS 3 Zrotation Xrotation Yrotation
        End Site
        {
          OFFSET 0 -5 15
        }
      }
    }
  }
  JOINT pelvis_spine1
  {
    OFFSET 0 6.468898 -3.129235
    CHANNELS 3 Zrotation Xrotation Yrotation
    JOINT spine1
    {
      OFFSET 0 23.15396 4.99043
      CHANNELS 3 Zrotation Xrotation Yrotation
      JOINT spine2
      {
        OFFSET 0 20.79997 -5.064912
        CHANNELS 3 Zrotation Xrotation Yrotation
        JOINT neck
        {
          OFFSET 0 14.38658 9.616178
          CHANNELS 3 Zrotation Xrotation Yrotation
          End Site
          {
            OFFSET 0 20 0
          }
        }
      }
      JOINT right_manubrium
      {
        OFFSET -5.722621 16.35077 3.967754
        CHANNELS 3 Zrotation Xrotation Yrotation
        JOINT right_clavicle
        {
          OFFSET -13.16364 1.694482 -4.693211
          CHANNELS 3 Zrotation Xrotation Yrotation
          JOINT right_humerus
          {
            OFFSET -28.5034 -0.3100689 -2.792744
            CHANNELS 3 Zrotation Xrotation Yrotation
            JOINT right_radius
            {
              OFFSET -25.15693 0.02248979 -1.271978
              CHANNELS 3 Zrotation Xrotation Yrotation
              End Site
              {
                OFFSET -15 0 0
              }
            }
          }
        }
      }
      JOINT left_manubrium
      {
        OFFSET 5.722621 16.35077 3.967754
        CHANNELS 3 Zrotation Xrotation Yrotation
        JOINT left_clavicle
        {
          OFFSET 13.16364 1.694482 -4.693211
          CHANNELS 3 Zrotation Xrotation Yrotation
          JOINT left_humerus
          {
            OFFSET 29.39168 -1.063119 -2.237045
            CHANNELS 3 Zrotation Xrotation Yrotation
            JOINT left_radius
            {
              OFFSET 24.59957 -0.9528479 0.9047498
              CHANNELS 3 Zrotation Xrotation Yrotation
              End Site
              {
                OFFSET 15 -0 -0
              }
            }
          }
        }
      }
    }
  }
}
MOTION
Frames: 15
Frame Time: 0.0416666666667
-1752.719 57.59388 2471.135 -11.42193 -1.957576 -82.8209 3.672332 2.96761 -6.456978 -0 22.12001 -0 -13.54618 8.462918 1.871079 -1.72737 -4.043702 -3.754739 -0 29.8285 -0 3.226198 -6.138205 16.16812 -0.1297802 -2.00766 4.305563 -0.9098143 15.5128 -4.989097 1.384053 23.44296 4.503151 3.273413 -17.56203 4.878479 -3.642649 -22.46196 11.83679 93.41924 14.2901 -14.17508 -0 0 12.28895 -27.95961 9.70205 13.14871 5.613268 -25.09765 -9.054992 -88.70741 7.024037 18.42475 0 0 -10.64774 18.66425 13.92936 -11.4731
-1759.488 57.67311 2472.491 -11.4449 -1.935883 -82.97904 3.633054 2.768906 -6.47777 -0 22.33009 -0 -13.54516 8.622168 1.855453 -1.78799 -3.796945 -3.788524 -0 29.8449 -0 3.238593 -6.200507 16.14468 -0.1417208 -2.009147 4.267702 -0.9089803 15.51582 -5.005522 1.384797 23.45303 4.515103 3.277411 -17.55312 4.889786 -3.640287 -22.40551 11.83284 93.47969 14.27247 -14.24928 -0 0 12.18273 -27.95979 9.695586 13.1281 5.618988 -25.11703 -9.07505 -88.65711 7.010917 18.31598 0 0 -10.70268 18.70456 13.92216 -11.52254
-1766.264 57.76721 2473.824 -11.46418 -1.91169 -83.12886 3.601583 2.526892 -6.503114 -0 22.48031 -0 -13.55319 8.782472 1.838076 -1.847357 -3.518212 -3.81726 -0 29.91641 -0 3.247155 -6.26393 16.1092 -0.1489473 -2.011086 4.226658 -0.9031417 15.52092 -5.028878 1.384862 23.4618 4.526275 3.28197 -17.54817 4.899155 -3.639417 -22.34203 11.83044 93.55085 14.2522 -14.34611 -0 0 12.05659 -27.95122 9.692087 13.09762 5.627275 -25.14943 -9.097797 -88.59981 6.992993 18.18956 0 0 -10.78426 18.75631 13.91496 -11.58597
-1773.049 57.87529 2475.132 -11.47875 -1.884194 -83.27244 3.580034 2.25926 -6.531126 -0 22.56043 -0 -13.56969 8.932191 1.820315 -1.901271 -3.22782 -3.83906 -0 30.03656 -0 3.251445 -6.324045 16.06444 -0.1510113 -2.013375 4.185405 -0.8927487 15.52771 -5.057437 1.384235 23.46863 4.535889 3.286765 -17.54757 4.905946 -3.640084 -22.27626 11.82974 93.62748 14.23078 -14.45834 -0 0 11.9199 -27.9345 9.691714 13.05955 5.637531 -25.1924 -9.121556 -88.53979 6.971586 18.05489 0 0 -10.88634 18.81573 13.90833 -11.65876
-1779.842 57.99549 2476.413 -11.48818 -1.852922 -83.4123 3.569718 1.985399 -6.559779 -0 22.5663 -0 -13.59332 9.061233 1.803425 -1.946096 -2.946379 -3.852445 -0 30.19665 -0 3.251145 -6.376562 16.01364 -0.1478454 -2.01583 4.146838 -0.8786415 15.5357 -5.089077 1.382986 23.4731 4.543283 3.291454 -17.55119 4.909712 -3.642247 -22.21278 11.83077 93.70418 14.20958 -14.5778 -0 0 11.78233 -27.91109 9.694452 13.01673 5.648968 -25.24273 -9.144682 -88.48129 6.948147 17.92146 0 0 -11.00136 18.87853 13.90264 -11.73569
-1786.642 58.12527 2477.669 -11.49259 -1.817746 -83.55113 3.571086 1.724963 -6.587049 -0 22.49982 -0 -13.62215 9.161628 1.788463 -1.978979 -2.693357 -3.856456 -0 30.3862 -0 3.246108 -6.417657 15.96026 -0.1397599 -2.018206 4.113572 -0.861971 15.54438 -5.121447 1.381257 23.47504 4.547955 3.295701 -17.55847 4.910232 -3.645777 -22.15576 11.83342 93.77576 14.18983 -14.69599 -0 0 11.65323 -27.8831 9.700109 12.97234 5.660685 -25.29669 -9.165662 -88.42818 6.924173 17.79827 0 0 -11.1209 18.94021 13.89808 -11.81127
-1793.451 58.26168 2478.897 -11.49258 -1.778849 -83.69166 3.583746 1.496409 -6.611059 -0 22.36843 -0 -13.65379 9.227814 1.776258 -1.997987 -2.485801 -3.850748 -0 30.59332 -0 3.236436 -6.444304 15.90784 -0.1274103 -2.020239 4.087788 -0.8440828 15.55317 -5.152155 1.379238 23.47446 4.549605 3.299201 -17.56846 4.907517 -3.650455 -22.10875 11.83747 93.83754 14.1726 -14.80462 -0 0 11.54105 -27.85304 9.708323 12.92964 5.67175 -25.35032 -9.18319 -88.38381 6.901157 17.69328 0 0 -11.23637 18.9964 13.8947 -11.88019
-1800.268 58.40152 2480.099 -11.489 -1.736672 -83.83637 3.606538 1.315652 -6.6302 -0 22.18392 -0 -13.68571 9.256677 1.767416 -2.002166 -2.337301 -3.835659 -0 30.80508 -0 3.222555 -6.454546 15.85979 -0.111741 -2.021688 4.071107 -0.8263828 15.56154 -5.178969 1.377134 23.47158 4.548146 3.301706 -17.58008 4.901808 -3.655977 -22.07452 11.84258 93.88557 14.15879 -14.89624 -0 0 11.45294 -27.8235 9.718567 12.89174 5.681298 -25.39973 -9.196217 -88.35083 6.880529 17.61308 0 0 -11.33961 19.04316 13.89252 -11.93766
-1807.092 58.5416 2481.275 -11.4828 -1.691834 -83.98743 3.637662 1.194925 -6.643233 -0 21.96114 -0 -13.71546 9.247437 1.762338 -1.991538 -2.257203 -3.812234 -0 31.00783 -0 3.205275 -6.447694 15.81925 -0.09391068 -2.022383 4.064515 -0.8102031 15.56894 -5.199991 1.375138 23.46671 4.543719 3.303046 -17.59224 4.893552 -3.661966 -22.05505 11.84837 93.91686 14.14918 -14.96468 -0 0 11.39441 -27.79688 9.73016 12.86129 5.688613 -25.44142 -9.203979 -88.33117 6.863613 17.56257 0 0 -11.42345 19.07727 13.89151 -11.97974
-1813.923 58.6788 2482.426 -11.47491 -1.645062 -84.1465 3.674821 1.141949 -6.649355 -0 21.71664 -0 -13.7409 9.20148 1.76125 -1.967057 -2.250108 -3.782175 -0 31.18791 -0 3.185783 -6.424405 15.78893 -0.07520566 -2.022256 4.068318 -0.7966884 15.57487 -5.213802 1.3734 23.46025 4.536673 3.303136 -17.60401 4.883367 -3.667994 -22.05139 11.85443 93.92948 14.14437 -15.00549 -0 0 11.36906 -27.7751 9.742302 12.84036 5.693193 -25.47255 -9.206028 -88.32591 6.851556 17.54474 0 0 -11.48226 19.09648 13.89171 -12.00366
-1820.76 58.81023 2483.554 -11.46608 -1.597133 -84.31465 3.715387 1.159459 -6.64824 -0 21.46739 -0 -13.76038 9.122181 1.764203 -1.930529 -2.315645 -3.747732 -0 31.33241 -0 3.165574 -6.386625 15.77089 -0.05694872 -2.021349 4.082139 -0.786714 15.57891 -5.219556 1.372022 23.45263 4.527544 3.30199 -17.61466 4.871995 -3.673614 -22.0637 11.86031 93.92269 14.14478 -15.01615 -0 0 11.37837 -27.75947 9.75412 12.83027 5.694789 -25.49108 -9.202248 -88.33529 6.845243 17.56059 0 0 -11.51228 19.09962 13.89318 -12.00796
-1827.601 58.93329 2484.659 -11.45697 -1.54883 -84.49234 3.756569 1.245106 -6.640059 -0 21.22979 -0 -13.77277 9.014766 1.771066 -1.884505 -2.448532 -3.71152 -0 31.43025 -0 3.146313 -6.337412 15.76645 -0.0404085 -2.019804 4.104938 -0.7808422 15.58075 -5.217019 1.371052 23.44433 4.517009 3.299711 -17.62371 4.86025 -3.678401 -22.09119 11.86563 93.89701 14.15055 -14.9963 -0 0 11.42162 -27.7507 9.764734 12.83149 5.6934 -25.49595 -9.19288 -88.35868 6.845211 17.60896 0 0 -11.51185 19.08672 13.89597 -11.9926
-1834.446 59.04583 2485.742 -11.44815 -1.500917 -84.67938 3.795572 1.39174 -6.625461 -0 21.01889 -0 -13.77755 8.886154 1.781497 -1.832153 -2.638908 -3.676292 -0 31.47336 -0 3.129652 -6.280648 15.776 -0.02671487 -2.017831 4.13508 -0.7793145 15.58024 -5.206564 1.370499 23.4358 4.505839 3.296485 -17.63089 4.84896 -3.681988 -22.13209 11.87002 93.85424 14.16147 -14.94767 -0 0 11.49581 -27.74887 9.773331 12.8437 5.689257 -25.48709 -9.178529 -88.39455 6.85156 17.68655 0 0 -11.48146 19.05894 13.9001 -11.95893
-1841.292 59.14626 2486.806 -11.44017 -1.45412 -84.87494 3.829766 1.588024 -6.605532 -0 20.8478 -0 -13.77474 8.744754 1.794916 -1.777077 -2.872972 -3.644697 -0 31.45768 -0 3.117027 -6.220682 15.79892 -0.01678514 -2.015669 4.170423 -0.7820715 15.57739 -5.189108 1.370341 23.42755 4.494838 3.292563 -17.63601 4.838912 -3.684107 -22.18369 11.87321 93.79738 14.17694 -14.874 -0 0 11.59577 -27.75363 9.77925 12.86581 5.682772 -25.46541 -9.160153 -88.44052 6.863898 17.78802 0 0 -11.42372 19.01851 13.90547 -11.90963
-1848.138 59.23372 2487.852 -11.43367 -1.409112 -85.07764 3.85684 1.819329 -6.581722 -0 20.72715 -0 -13.76479 8.600111 1.810494 -1.723115 -3.133882 -3.61904 -0 31.3839 -0 3.109483 -6.161954 15.83357 -0.01126476 -2.013541 4.208457 -0.7887914 15.57239 -5.166027 1.370549 23.42007 4.484788 3.288239 -17.63896 4.830795 -3.684613 -22.24246 11.875 93.73046 14.19593 -14.78077 -0 0 11.71444 -27.76431 9.782039 12.89608 5.674487 -25.43266 -9.139029 -88.49344 6.881334 17.90626 0 0 -11.34308 18.96851 13.91179 -11.84842
